<svg version="1.2" xmlns="http://www.w3.org/2000/svg" viewBox="0 0 510 510" width="510" height="510">
	<title>facebook-svg</title>
	<style>
		.s0 { fill: #1976d2 } 
		.s1 { fill: #fafafa } 
	</style>
	<path class="s0" d="m446.3 0h-382.6c-35.1 0-63.7 28.6-63.7 63.8v382.4c0 35.2 28.6 63.8 63.8 63.8h382.5c35.1 0 63.7-28.6 63.7-63.7v-382.5c0-35.2-28.6-63.8-63.7-63.8z"/>
	<path fill-rule="evenodd" class="s1" d="m430.3 255h-79.7v-63.8c0-17.5 14.3-15.9 31.9-15.9h31.9v-79.7h-63.8c-12.5 0-25 2.5-36.6 7.3-11.6 4.8-22.1 11.9-31 20.7-8.9 8.9-15.9 19.5-20.7 31.1-4.8 11.6-7.3 24-7.3 36.5v63.8h-63.8v79.7h63.8v175.3h95.6v-175.3h47.8z"/>
</svg>