<svg version="1.2" xmlns="http://www.w3.org/2000/svg" viewBox="0 0 200 200" width="200" height="200">
	<title>share-icon-svg</title>
	<style>
		.s0 { fill: #000000;stroke: #000000;paint-order:stroke fill markers;stroke-linejoin: round;stroke-width: 6 } 
	</style>
	<path fill-rule="evenodd" class="s0" d="m193.5 164.4c0 16-13 29.1-29.1 29.1-16.1 0-29.2-13.1-29.2-29.1 0-2.4 0.3-4.6 0.8-6.8l-77-39.3c-5.4 6.8-13.6 11.1-22.9 11.1-16.1 0-29.1-13.1-29.1-29.2 0-16 13-29.1 29.1-29.1 8.6 0 16.3 3.7 21.6 9.6l78.3-38c-0.5-2.1-0.8-4.3-0.8-6.6 0-16.1 13.1-29.1 29.2-29.1 16.1 0 29.1 13 29.1 29.1 0 16.1-13 29.2-29.1 29.2-9.7 0-18.3-4.8-23.6-12l-77.1 37.5c1 2.9 1.6 6.1 1.6 9.5 0 2.6-0.4 5.2-1.1 7.6l76.8 39.1c5.3-7.1 13.8-11.8 23.4-11.8 16.1 0 29.1 13.1 29.1 29.2zm-11.7-128.3c0-9.6-7.8-17.4-17.4-17.4-9.7 0-17.5 7.8-17.5 17.4 0 9.7 7.8 17.5 17.5 17.5 9.6 0 17.4-7.8 17.4-17.5zm-128.2 64.1c0-9.6-7.8-17.4-17.5-17.4-9.6 0-17.4 7.8-17.4 17.4 0 9.7 7.8 17.5 17.4 17.5 9.7 0 17.5-7.8 17.5-17.5zm128.2 64.2c0-9.7-7.8-17.5-17.4-17.5-9.7 0-17.5 7.8-17.5 17.5 0 9.6 7.8 17.4 17.5 17.4 9.6 0 17.4-7.8 17.4-17.4z"/>
</svg>